<svg xmlns="http://www.w3.org/2000/svg" version="1.1" xmlns:xlink="http://www.w3.org/1999/xlink" xmlns:svgjs="http://svgjs.dev/svgjs" width="1500" height="935" viewBox="0 0 1500 935"><g transform="matrix(1,0,0,1,-0.9090909090909918,0.3785425101214628)"><svg viewBox="0 0 396 247" data-background-color="#e65728" preserveAspectRatio="xMidYMid meet" height="935" width="1500" xmlns="http://www.w3.org/2000/svg" xmlns:xlink="http://www.w3.org/1999/xlink"><g id="tight-bounds" transform="matrix(1,0,0,1,0.2400000000000091,-0.09999999999999432)"><svg viewBox="0 0 395.52 247.2" height="247.2" width="395.52"><g><svg></svg></g><g><svg viewBox="0 0 395.52 247.2" height="247.2" width="395.52"><mask id="28db1372-87ba-40b3-b035-72c8dc255b99"><rect width="395.52" height="247.2" fill="white"></rect><g transform="matrix(1,0,0,1,0,98.84921544209215)" id="clone"><svg viewBox="0 0 395.52 49.501569115815684" height="49.501569115815684" width="395.52"><g><svg viewBox="0 0 395.52 49.501569115815684" height="49.501569115815684" width="395.52"><g><svg viewBox="0 0 395.52 49.501569115815684" height="49.501569115815684" width="395.52"><g><svg viewBox="0 0 395.52 49.501569115815684" height="49.501569115815684" width="395.52"><g id="SvgjsG1196"><svg viewBox="0 0 395.52 49.501569115815684" height="49.501569115815684" width="395.52" id="SvgjsSvg1195"><g><svg viewBox="0 0 395.52 49.501569115815684" height="49.501569115815684" width="395.52"><g transform="matrix(1,0,0,1,0,0)"><svg width="395.52" viewBox="-2.2 -39.15 402.46 51.25" height="49.501569115815684" data-palette-color="#ffffff"><path d="M13.55 0L0.8-34.3 5.95-34.3 15-9.35 16.7-4.75 16.95-4.75 18.55-9.15 27.65-34.3 32.55-34.3 19.8 0 13.55 0ZM40.15 0.6Q36.75 0.6 34.1-1 31.45-2.6 31.45-6.8L31.45-6.8Q31.45-11.85 35.95-13.73 40.45-15.6 48.95-15.6L48.95-15.6 48.95-18.5Q48.95-20.8 47.65-22.03 46.35-23.25 42.95-23.25L42.95-23.25Q39.75-23.25 38.37-22.05 37-20.85 37-19.1L37-19.1 37-18.5 32.75-18.5Q32.7-18.8 32.7-19.6L32.7-19.6Q32.7-23.1 35.6-25 38.5-26.9 43.35-26.9L43.35-26.9Q48.25-26.9 50.8-24.85 53.35-22.8 53.35-19.05L53.35-19.05 53.35-4.8Q53.35-3.9 53.85-3.48 54.35-3.05 55.1-3.05L55.1-3.05 57.1-3.05 57.1-0.2Q55.8 0.4 53.7 0.4L53.7 0.4Q52 0.4 50.85-0.63 49.7-1.65 49.3-3.35L49.3-3.35 48.95-3.35Q47.6-1.5 45.27-0.45 42.95 0.6 40.15 0.6L40.15 0.6ZM41.3-3.05Q43.25-3.05 45-3.85 46.75-4.65 47.85-6.23 48.95-7.8 48.95-10.05L48.95-10.05 48.95-11.95Q42.5-11.95 39.27-10.93 36.05-9.9 36.05-7.05L36.05-7.05Q36.05-4.9 37.37-3.98 38.7-3.05 41.3-3.05L41.3-3.05ZM70.8 0.6Q64.8 0.6 62-2.73 59.2-6.05 59.2-13.15L59.2-13.15Q59.2-20.2 62.02-23.55 64.85-26.9 70.8-26.9L70.8-26.9Q76.2-26.9 78.7-24.3 81.2-21.7 81.2-16.55L81.2-16.55 76.7-16.55Q76.7-20.1 75.42-21.68 74.15-23.25 70.8-23.25L70.8-23.25Q67.15-23.25 65.45-20.88 63.75-18.5 63.75-13.15L63.75-13.15 63.75-12.95Q63.75-7.65 65.4-5.35 67.05-3.05 70.8-3.05L70.8-3.05Q74.1-3.05 75.52-4.73 76.95-6.4 76.95-9.75L76.95-9.75 81.2-9.75Q81.2-5.25 78.65-2.33 76.1 0.6 70.8 0.6L70.8 0.6ZM92.94 0.6Q89.54 0.6 86.89-1 84.24-2.6 84.24-6.8L84.24-6.8Q84.24-11.85 88.74-13.73 93.24-15.6 101.74-15.6L101.74-15.6 101.74-18.5Q101.74-20.8 100.44-22.03 99.14-23.25 95.74-23.25L95.74-23.25Q92.54-23.25 91.17-22.05 89.79-20.85 89.79-19.1L89.79-19.1 89.79-18.5 85.54-18.5Q85.49-18.8 85.49-19.6L85.49-19.6Q85.49-23.1 88.39-25 91.29-26.9 96.14-26.9L96.14-26.9Q101.04-26.9 103.59-24.85 106.14-22.8 106.14-19.05L106.14-19.05 106.14-4.8Q106.14-3.9 106.64-3.48 107.14-3.05 107.89-3.05L107.89-3.05 109.89-3.05 109.89-0.2Q108.59 0.4 106.49 0.4L106.49 0.4Q104.79 0.4 103.64-0.63 102.49-1.65 102.09-3.35L102.09-3.35 101.74-3.35Q100.39-1.5 98.07-0.45 95.74 0.6 92.94 0.6L92.94 0.6ZM94.09-3.05Q96.04-3.05 97.79-3.85 99.54-4.65 100.64-6.23 101.74-7.8 101.74-10.05L101.74-10.05 101.74-11.95Q95.29-11.95 92.07-10.93 88.84-9.9 88.84-7.05L88.84-7.05Q88.84-4.9 90.17-3.98 91.49-3.05 94.09-3.05L94.09-3.05ZM113.59 0L113.59-26.3 116.94-26.3 117.44-22.75 117.79-22.75Q120.69-26.9 126.64-26.9L126.64-26.9Q130.59-26.9 132.72-24.78 134.84-22.65 134.84-17.95L134.84-17.95 134.84 0 130.44 0 130.44-17.65Q130.44-20.8 129.04-22.03 127.64-23.25 124.99-23.25L124.99-23.25Q123.09-23.25 121.49-22.33 119.89-21.4 118.94-19.65 117.99-17.9 117.99-15.55L117.99-15.55 117.99 0 113.59 0ZM150.39 0.6Q146.74 0.6 144.31-0.48 141.89-1.55 140.74-3.3 139.59-5.05 139.59-7.1L139.59-7.1Q139.59-7.7 139.61-7.93 139.64-8.15 139.64-8.2L139.64-8.2 143.99-8.2 143.99-7.7Q143.99-5.35 145.84-4.17 147.69-3 150.64-3L150.64-3Q153.19-3 154.86-4.03 156.54-5.05 156.54-6.9L156.54-6.9Q156.54-8.35 155.59-9.28 154.64-10.2 153.24-10.73 151.84-11.25 149.44-11.85L149.44-11.85Q146.54-12.6 144.71-13.35 142.89-14.1 141.61-15.58 140.34-17.05 140.34-19.4L140.34-19.4Q140.34-22.85 143.16-24.88 145.99-26.9 150.79-26.9L150.79-26.9Q153.79-26.9 155.99-25.93 158.19-24.95 159.31-23.33 160.44-21.7 160.44-19.7L160.44-19.7 160.39-18.75 156.09-18.75 156.09-19.2Q156.09-20.95 154.71-22.1 153.34-23.25 150.29-23.25L150.29-23.25Q147.29-23.25 146.09-22.18 144.89-21.1 144.89-19.7L144.89-19.7Q144.89-18.55 145.74-17.8 146.59-17.05 147.84-16.6 149.09-16.15 151.34-15.6L151.34-15.6Q154.44-14.8 156.39-14.03 158.34-13.25 159.71-11.68 161.09-10.1 161.09-7.5L161.09-7.5Q161.09-3.45 158.16-1.43 155.24 0.6 150.39 0.6L150.39 0.6ZM168.89 9.1Q166.69 9.1 165.39 8.7L165.39 8.7 165.39 5.85 167.14 5.85Q172.24 5.85 173.84 0L173.84 0 163.69-26.3 168.34-26.3 173.24-13.15Q174.29-10.35 176.09-4.9L176.09-4.9 176.34-4.9Q177.79-10 178.79-13.15L178.79-13.15 182.99-26.3 187.39-26.3 178.74-1.35Q176.99 3.65 174.76 6.38 172.54 9.1 168.89 9.1L168.89 9.1ZM199.53 0L212.83-34.3 218.88-34.3 232.18 0 227.13 0 223.68-9.15 207.78-9.15 204.43 0 199.53 0ZM209.33-13.3L222.13-13.3 218.13-24 215.83-30.2 215.58-30.2 213.33-24.1 209.33-13.3ZM235.88 0L235.88-26.3 239.23-26.3 239.73-22.75 240.08-22.75Q242.98-26.9 248.93-26.9L248.93-26.9Q252.88-26.9 255-24.78 257.13-22.65 257.13-17.95L257.13-17.95 257.13 0 252.73 0 252.73-17.65Q252.73-20.8 251.33-22.03 249.93-23.25 247.28-23.25L247.28-23.25Q245.38-23.25 243.78-22.33 242.18-21.4 241.23-19.65 240.28-17.9 240.28-15.55L240.28-15.55 240.28 0 235.88 0ZM270.83 0.6Q267.43 0.6 264.78-1 262.13-2.6 262.13-6.8L262.13-6.8Q262.13-11.85 266.63-13.73 271.13-15.6 279.63-15.6L279.63-15.6 279.63-18.5Q279.63-20.8 278.33-22.03 277.03-23.25 273.63-23.25L273.63-23.25Q270.43-23.25 269.05-22.05 267.68-20.85 267.68-19.1L267.68-19.1 267.68-18.5 263.43-18.5Q263.38-18.8 263.38-19.6L263.38-19.6Q263.38-23.1 266.28-25 269.18-26.9 274.03-26.9L274.03-26.9Q278.93-26.9 281.48-24.85 284.03-22.8 284.03-19.05L284.03-19.05 284.03-4.8Q284.03-3.9 284.53-3.48 285.03-3.05 285.78-3.05L285.78-3.05 287.78-3.05 287.78-0.2Q286.48 0.4 284.38 0.4L284.38 0.4Q282.68 0.4 281.53-0.63 280.38-1.65 279.98-3.35L279.98-3.35 279.63-3.35Q278.28-1.5 275.95-0.45 273.63 0.6 270.83 0.6L270.83 0.6ZM271.98-3.05Q273.93-3.05 275.68-3.85 277.43-4.65 278.53-6.23 279.63-7.8 279.63-10.05L279.63-10.05 279.63-11.95Q273.18-11.95 269.95-10.93 266.73-9.9 266.73-7.05L266.73-7.05Q266.73-4.9 268.05-3.98 269.38-3.05 271.98-3.05L271.98-3.05ZM291.47 0L291.47-36.15 295.87-36.15 295.87 0 291.47 0ZM305.07 9.1Q302.87 9.1 301.57 8.7L301.57 8.7 301.57 5.85 303.32 5.85Q308.42 5.85 310.02 0L310.02 0 299.87-26.3 304.52-26.3 309.42-13.15Q310.47-10.35 312.27-4.9L312.27-4.9 312.52-4.9Q313.97-10 314.97-13.15L314.97-13.15 319.17-26.3 323.57-26.3 314.92-1.35Q313.17 3.65 310.95 6.38 308.72 9.1 305.07 9.1L305.07 9.1ZM333.52 0.55Q330.82 0.55 329.57-1.05 328.32-2.65 328.32-5L328.32-5 328.32-22.65 325.12-22.65 325.12-26.3 328.37-26.3 329.32-33.6 332.72-33.6 332.72-26.3 337.17-26.3 337.17-22.65 332.72-22.65 332.72-5.4Q332.72-3.05 334.92-3.05L334.92-3.05 337.17-3.05 337.17-0.15Q336.52 0.15 335.47 0.35 334.42 0.55 333.52 0.55L333.52 0.55ZM341.47-31.4L341.47-36.15 345.82-36.15 345.82-31.4 341.47-31.4ZM341.47 0L341.47-26.3 345.87-26.3 345.87 0 341.47 0ZM362.56 0.6Q356.56 0.6 353.76-2.73 350.96-6.05 350.96-13.15L350.96-13.15Q350.96-20.2 353.79-23.55 356.61-26.9 362.56-26.9L362.56-26.9Q367.96-26.9 370.46-24.3 372.96-21.7 372.96-16.55L372.96-16.55 368.46-16.55Q368.46-20.1 367.19-21.68 365.91-23.25 362.56-23.25L362.56-23.25Q358.91-23.25 357.21-20.88 355.51-18.5 355.51-13.15L355.51-13.15 355.51-12.95Q355.51-7.65 357.16-5.35 358.81-3.05 362.56-3.05L362.56-3.05Q365.86-3.05 367.29-4.73 368.71-6.4 368.71-9.75L368.71-9.75 372.96-9.75Q372.96-5.25 370.41-2.33 367.86 0.6 362.56 0.6L362.56 0.6ZM386.56 0.6Q382.91 0.6 380.49-0.48 378.06-1.55 376.91-3.3 375.76-5.05 375.76-7.1L375.76-7.1Q375.76-7.7 375.79-7.93 375.81-8.15 375.81-8.2L375.81-8.2 380.16-8.2 380.16-7.7Q380.16-5.35 382.01-4.17 383.86-3 386.81-3L386.81-3Q389.36-3 391.04-4.03 392.71-5.05 392.71-6.9L392.71-6.9Q392.71-8.35 391.76-9.28 390.81-10.2 389.41-10.73 388.01-11.25 385.61-11.85L385.61-11.85Q382.71-12.6 380.89-13.35 379.06-14.1 377.79-15.58 376.51-17.05 376.51-19.4L376.51-19.4Q376.51-22.85 379.34-24.88 382.16-26.9 386.96-26.9L386.96-26.9Q389.96-26.9 392.16-25.93 394.36-24.95 395.49-23.33 396.61-21.7 396.61-19.7L396.61-19.7 396.56-18.75 392.26-18.75 392.26-19.2Q392.26-20.95 390.89-22.1 389.51-23.25 386.46-23.25L386.46-23.25Q383.46-23.25 382.26-22.18 381.06-21.1 381.06-19.7L381.06-19.7Q381.06-18.55 381.91-17.8 382.76-17.05 384.01-16.6 385.26-16.15 387.51-15.6L387.51-15.6Q390.61-14.8 392.56-14.03 394.51-13.25 395.89-11.68 397.26-10.1 397.26-7.5L397.26-7.5Q397.26-3.45 394.34-1.43 391.41 0.6 386.56 0.6L386.56 0.6Z" opacity="1" transform="matrix(1,0,0,1,0,0)" fill="black" class="wordmark-text-0" id="SvgjsPath1194" stroke-width="5" stroke="black" stroke-linejoin="round"></path></svg></g></svg></g></svg></g></svg></g></svg></g></svg></g></svg></g></mask><g mask="url(#28db1372-87ba-40b3-b035-72c8dc255b99)"><g><path d="M79.766 229.548l-78.766-211.896h31.815l55.908 154.134 10.503 28.418h1.544l9.884-27.182 56.217-155.37h30.271l-78.766 211.896zM192.818 229.548l82.163-211.896h37.375l82.164 211.896h-31.197l-21.314-56.526h-98.225l-20.695 56.526zM253.359 147.384h79.075l-24.711-66.101-14.209-38.302h-1.544l-13.9 37.684z" fill="#ffffff" fill-rule="nonzero" stroke="none" stroke-width="1" stroke-linecap="butt" stroke-linejoin="miter" stroke-miterlimit="10" stroke-dasharray="" stroke-dashoffset="0" font-family="none" font-weight="none" font-size="none" text-anchor="none" style="mix-blend-mode: normal" data-fill-palette-color="tertiary"></path></g></g><g transform="matrix(1,0,0,1,0,98.84921544209215)"><svg viewBox="0 0 395.52 49.501569115815684" height="49.501569115815684" width="395.52"><g><svg viewBox="0 0 395.52 49.501569115815684" height="49.501569115815684" width="395.52"><g><svg viewBox="0 0 395.52 49.501569115815684" height="49.501569115815684" width="395.52"><g><svg viewBox="0 0 395.52 49.501569115815684" height="49.501569115815684" width="395.52"><g id="textblocktransform"><svg viewBox="0 0 395.52 49.501569115815684" height="49.501569115815684" width="395.52" id="textblock"><g><svg viewBox="0 0 395.52 49.501569115815684" height="49.501569115815684" width="395.52"><g transform="matrix(1,0,0,1,0,0)"><svg width="395.52" viewBox="-2.2 -39.15 402.46 51.25" height="49.501569115815684" data-palette-color="#ffffff"><path d="M13.55 0L0.8-34.3 5.95-34.3 15-9.35 16.7-4.75 16.95-4.75 18.55-9.15 27.65-34.3 32.55-34.3 19.8 0 13.55 0ZM40.15 0.6Q36.75 0.6 34.1-1 31.45-2.6 31.45-6.8L31.45-6.8Q31.45-11.85 35.95-13.73 40.45-15.6 48.95-15.6L48.95-15.6 48.95-18.5Q48.95-20.8 47.65-22.03 46.35-23.25 42.95-23.25L42.95-23.25Q39.75-23.25 38.37-22.05 37-20.85 37-19.1L37-19.1 37-18.5 32.75-18.5Q32.7-18.8 32.7-19.6L32.7-19.6Q32.7-23.1 35.6-25 38.5-26.9 43.35-26.9L43.35-26.9Q48.25-26.9 50.8-24.85 53.35-22.8 53.35-19.05L53.35-19.05 53.35-4.8Q53.35-3.9 53.85-3.48 54.35-3.05 55.1-3.05L55.1-3.05 57.1-3.05 57.1-0.2Q55.8 0.4 53.7 0.4L53.7 0.4Q52 0.4 50.85-0.63 49.7-1.65 49.3-3.35L49.3-3.35 48.95-3.35Q47.6-1.5 45.27-0.45 42.95 0.6 40.15 0.6L40.15 0.6ZM41.3-3.05Q43.25-3.05 45-3.85 46.75-4.65 47.85-6.23 48.95-7.8 48.95-10.05L48.95-10.05 48.95-11.95Q42.5-11.95 39.27-10.93 36.05-9.9 36.05-7.05L36.05-7.05Q36.05-4.9 37.37-3.98 38.7-3.05 41.3-3.05L41.3-3.05ZM70.8 0.6Q64.8 0.6 62-2.73 59.2-6.05 59.2-13.15L59.2-13.15Q59.2-20.2 62.02-23.55 64.85-26.9 70.8-26.9L70.8-26.9Q76.2-26.9 78.7-24.3 81.2-21.7 81.2-16.55L81.2-16.55 76.7-16.55Q76.7-20.1 75.42-21.68 74.15-23.25 70.8-23.25L70.8-23.25Q67.15-23.25 65.45-20.88 63.75-18.5 63.75-13.15L63.75-13.15 63.75-12.95Q63.75-7.65 65.4-5.35 67.05-3.05 70.8-3.05L70.8-3.05Q74.1-3.05 75.52-4.73 76.95-6.4 76.95-9.75L76.95-9.75 81.2-9.75Q81.2-5.25 78.65-2.33 76.1 0.6 70.8 0.6L70.8 0.6ZM92.94 0.6Q89.54 0.6 86.89-1 84.24-2.6 84.24-6.8L84.24-6.8Q84.24-11.85 88.74-13.73 93.24-15.6 101.74-15.6L101.74-15.6 101.74-18.5Q101.74-20.8 100.44-22.03 99.14-23.25 95.74-23.25L95.74-23.25Q92.54-23.25 91.17-22.05 89.79-20.85 89.79-19.1L89.79-19.1 89.79-18.5 85.54-18.5Q85.49-18.8 85.49-19.6L85.49-19.6Q85.49-23.1 88.39-25 91.29-26.9 96.14-26.9L96.14-26.9Q101.04-26.9 103.59-24.85 106.14-22.8 106.14-19.05L106.14-19.05 106.14-4.8Q106.14-3.9 106.64-3.48 107.14-3.05 107.89-3.05L107.89-3.05 109.89-3.05 109.89-0.2Q108.59 0.4 106.49 0.4L106.49 0.4Q104.79 0.4 103.64-0.63 102.49-1.65 102.09-3.35L102.09-3.35 101.74-3.35Q100.39-1.5 98.07-0.45 95.74 0.6 92.94 0.6L92.94 0.6ZM94.09-3.05Q96.04-3.05 97.79-3.85 99.54-4.65 100.64-6.23 101.74-7.8 101.74-10.05L101.74-10.05 101.74-11.95Q95.29-11.95 92.07-10.93 88.84-9.9 88.84-7.05L88.84-7.05Q88.84-4.9 90.17-3.98 91.49-3.05 94.09-3.05L94.09-3.05ZM113.59 0L113.59-26.3 116.94-26.3 117.44-22.75 117.79-22.75Q120.69-26.9 126.64-26.9L126.64-26.9Q130.59-26.9 132.72-24.78 134.84-22.65 134.84-17.95L134.84-17.95 134.84 0 130.44 0 130.44-17.65Q130.44-20.8 129.04-22.03 127.64-23.25 124.99-23.25L124.99-23.25Q123.09-23.25 121.49-22.33 119.89-21.4 118.94-19.65 117.99-17.9 117.99-15.55L117.99-15.55 117.99 0 113.59 0ZM150.39 0.6Q146.74 0.6 144.31-0.48 141.89-1.55 140.74-3.3 139.59-5.05 139.59-7.1L139.59-7.1Q139.59-7.7 139.61-7.93 139.64-8.15 139.64-8.2L139.64-8.2 143.99-8.2 143.99-7.7Q143.99-5.35 145.84-4.17 147.69-3 150.64-3L150.64-3Q153.19-3 154.86-4.03 156.54-5.05 156.54-6.9L156.54-6.9Q156.54-8.35 155.59-9.28 154.64-10.2 153.24-10.73 151.84-11.25 149.44-11.85L149.44-11.85Q146.54-12.6 144.71-13.35 142.89-14.1 141.61-15.58 140.34-17.05 140.34-19.4L140.34-19.4Q140.34-22.85 143.16-24.88 145.99-26.9 150.79-26.9L150.79-26.9Q153.79-26.9 155.99-25.93 158.19-24.95 159.31-23.33 160.44-21.7 160.44-19.7L160.44-19.7 160.39-18.75 156.09-18.75 156.09-19.2Q156.09-20.95 154.71-22.1 153.34-23.25 150.29-23.25L150.29-23.25Q147.29-23.25 146.09-22.18 144.89-21.1 144.89-19.7L144.89-19.7Q144.89-18.55 145.74-17.8 146.59-17.05 147.84-16.6 149.09-16.15 151.34-15.6L151.34-15.6Q154.44-14.8 156.39-14.03 158.34-13.25 159.71-11.68 161.09-10.1 161.09-7.5L161.09-7.5Q161.09-3.45 158.16-1.43 155.24 0.6 150.39 0.6L150.39 0.6ZM168.89 9.1Q166.69 9.1 165.39 8.7L165.39 8.7 165.39 5.85 167.14 5.85Q172.24 5.85 173.84 0L173.84 0 163.69-26.3 168.34-26.3 173.24-13.15Q174.29-10.35 176.09-4.9L176.09-4.9 176.34-4.9Q177.79-10 178.79-13.15L178.79-13.15 182.99-26.3 187.39-26.3 178.74-1.35Q176.99 3.65 174.76 6.38 172.54 9.1 168.89 9.1L168.89 9.1ZM199.53 0L212.83-34.3 218.88-34.3 232.18 0 227.13 0 223.68-9.15 207.78-9.15 204.43 0 199.53 0ZM209.33-13.3L222.13-13.3 218.13-24 215.83-30.2 215.58-30.2 213.33-24.1 209.33-13.3ZM235.88 0L235.88-26.3 239.23-26.3 239.73-22.75 240.08-22.75Q242.98-26.9 248.93-26.9L248.93-26.9Q252.88-26.9 255-24.78 257.13-22.65 257.13-17.95L257.13-17.95 257.13 0 252.73 0 252.73-17.65Q252.73-20.8 251.33-22.03 249.93-23.25 247.28-23.25L247.28-23.25Q245.38-23.25 243.78-22.33 242.18-21.4 241.23-19.65 240.28-17.9 240.28-15.55L240.28-15.55 240.28 0 235.88 0ZM270.83 0.6Q267.43 0.6 264.78-1 262.13-2.6 262.13-6.8L262.13-6.8Q262.13-11.85 266.63-13.73 271.13-15.6 279.63-15.6L279.63-15.6 279.63-18.5Q279.63-20.8 278.33-22.03 277.03-23.25 273.63-23.25L273.63-23.25Q270.43-23.25 269.05-22.05 267.68-20.85 267.68-19.1L267.68-19.1 267.68-18.5 263.43-18.5Q263.38-18.8 263.38-19.6L263.38-19.6Q263.38-23.1 266.28-25 269.18-26.9 274.03-26.9L274.03-26.9Q278.93-26.9 281.48-24.85 284.03-22.8 284.03-19.05L284.03-19.05 284.03-4.8Q284.03-3.9 284.53-3.48 285.03-3.05 285.78-3.05L285.78-3.05 287.78-3.05 287.78-0.2Q286.48 0.4 284.38 0.4L284.38 0.4Q282.68 0.4 281.53-0.63 280.38-1.65 279.98-3.35L279.98-3.35 279.63-3.35Q278.28-1.5 275.95-0.45 273.63 0.6 270.83 0.6L270.83 0.6ZM271.98-3.05Q273.93-3.05 275.68-3.85 277.43-4.65 278.53-6.23 279.63-7.8 279.63-10.05L279.63-10.05 279.63-11.95Q273.18-11.95 269.95-10.93 266.73-9.9 266.73-7.05L266.73-7.05Q266.73-4.9 268.05-3.98 269.38-3.05 271.98-3.05L271.98-3.05ZM291.47 0L291.47-36.15 295.87-36.15 295.87 0 291.47 0ZM305.07 9.1Q302.87 9.1 301.57 8.7L301.57 8.7 301.57 5.85 303.32 5.85Q308.42 5.85 310.02 0L310.02 0 299.87-26.3 304.52-26.3 309.42-13.15Q310.47-10.35 312.27-4.9L312.27-4.9 312.52-4.9Q313.97-10 314.97-13.15L314.97-13.15 319.17-26.3 323.57-26.3 314.92-1.35Q313.17 3.65 310.95 6.38 308.72 9.1 305.07 9.1L305.07 9.1ZM333.52 0.55Q330.82 0.55 329.57-1.05 328.32-2.65 328.32-5L328.32-5 328.32-22.65 325.12-22.65 325.12-26.3 328.37-26.3 329.32-33.6 332.72-33.6 332.72-26.3 337.17-26.3 337.17-22.65 332.72-22.65 332.72-5.4Q332.72-3.05 334.92-3.05L334.92-3.05 337.17-3.05 337.17-0.15Q336.52 0.15 335.47 0.35 334.42 0.55 333.52 0.55L333.52 0.55ZM341.47-31.4L341.47-36.15 345.82-36.15 345.82-31.4 341.47-31.4ZM341.47 0L341.47-26.3 345.87-26.3 345.87 0 341.47 0ZM362.56 0.6Q356.56 0.6 353.76-2.73 350.96-6.05 350.96-13.15L350.96-13.15Q350.96-20.2 353.79-23.55 356.61-26.9 362.56-26.9L362.56-26.9Q367.96-26.9 370.46-24.3 372.96-21.7 372.96-16.55L372.96-16.55 368.46-16.55Q368.46-20.1 367.19-21.68 365.91-23.25 362.56-23.25L362.56-23.25Q358.91-23.25 357.21-20.88 355.51-18.5 355.51-13.15L355.51-13.15 355.51-12.95Q355.51-7.65 357.16-5.35 358.81-3.05 362.56-3.05L362.56-3.05Q365.86-3.05 367.29-4.73 368.71-6.4 368.71-9.75L368.71-9.75 372.96-9.75Q372.96-5.25 370.41-2.33 367.86 0.6 362.56 0.6L362.56 0.6ZM386.56 0.6Q382.91 0.6 380.49-0.48 378.06-1.55 376.91-3.3 375.76-5.05 375.76-7.1L375.76-7.1Q375.76-7.7 375.79-7.93 375.81-8.15 375.81-8.2L375.81-8.2 380.16-8.2 380.16-7.7Q380.16-5.35 382.01-4.17 383.86-3 386.81-3L386.81-3Q389.36-3 391.04-4.03 392.71-5.05 392.71-6.9L392.71-6.9Q392.71-8.35 391.76-9.28 390.81-10.2 389.41-10.73 388.01-11.25 385.61-11.85L385.61-11.85Q382.71-12.6 380.89-13.35 379.06-14.1 377.79-15.58 376.51-17.05 376.51-19.4L376.51-19.4Q376.51-22.85 379.34-24.88 382.16-26.9 386.96-26.9L386.96-26.9Q389.96-26.9 392.16-25.93 394.36-24.95 395.49-23.33 396.61-21.7 396.61-19.7L396.61-19.7 396.56-18.75 392.26-18.75 392.26-19.2Q392.26-20.95 390.89-22.1 389.51-23.25 386.46-23.25L386.46-23.25Q383.46-23.25 382.26-22.18 381.06-21.1 381.06-19.7L381.06-19.7Q381.06-18.55 381.91-17.8 382.76-17.05 384.01-16.6 385.26-16.15 387.51-15.6L387.51-15.6Q390.61-14.8 392.56-14.03 394.51-13.25 395.89-11.68 397.26-10.1 397.26-7.5L397.26-7.5Q397.26-3.45 394.34-1.43 391.41 0.6 386.56 0.6L386.56 0.6Z" opacity="1" transform="matrix(1,0,0,1,0,0)" fill="#ffffff" class="wordmark-text-0" data-fill-palette-color="primary" id="text-0"></path></svg></g></svg></g></svg></g></svg></g></svg></g></svg></g></svg></g></svg></g><defs></defs></svg><rect width="395.52" height="247.2" fill="none" stroke="none" visibility="hidden"></rect></g></svg></g></svg>